<svg xmlns="http://www.w3.org/2000/svg" width="459" height="351" fill="none"><path fill="#F1F4F9" d="M457.183 159.822c-4.936-15.749-18.856-26.448-34.651-27.636 11.551-8.816 17.474-23.476 15.006-38.137-2.764-16.443-15.4-29.32-31.689-32.39-17.967-3.369-34.848-1.289-50.742 1.089-8.687 1.287-17.276 2.674-25.963 4.061a39.909 39.909 0 0 0 7.799-26.25c-.79-13.174-8.194-25.06-19.547-31.797-22.113-12.877-48.372-8.32-59.626-6.34C179.486 16.292 101.893 35.806 27.064 60.57 6.43 67.501-4.823 89.888 1.989 110.69c4.64 14.165 16.585 23.971 30.307 26.547l-10.07 6.834c-13.03 8.916-19.546 24.764-16.585 40.316 3.06 15.552 15.006 27.835 30.406 31.104 16.782 3.665 31.393-1.387 38.402-3.764 13.425-4.557 26.95-9.014 40.573-13.274L99.03 208.558c-15.302 9.806-32.972 21.495-48.077 35.561a39.673 39.673 0 0 0-8.49 46.655c7.8 15.75 24.977 24.467 42.253 21.396 20.632-3.665 38.895-10.5 54.986-16.443l1.185-.396c10.563-3.963 21.422-7.925 32.478-11.986-14.906 14.957-15.499 39.028-1.184 54.778 7.798 8.519 18.46 12.877 29.122 12.877 9.576 0 19.053-3.467 26.654-10.401 56.665-52.103 126.459-96.777 207.508-132.735 18.361-8.122 27.74-28.825 21.718-48.042z"/><path fill="#fff" d="M246.713 70.177l-3.257 2.08c-3.159-5.745-6.812-11.193-10.958-16.443-3.159-4.061-9.28-1.981-11.649 1.486-.987 1.387-1.974 2.872-2.961 4.26 0 0 0 .098-.099.098-4.443-1.387-8.589-3.566-13.623-3.467-6.417.198-11.254 3.17-15.697 7.528-3.554 3.567-4.64 4.458-9.477 2.378-5.331-2.278-10.267-4.953-16.19-4.458-5.528.397-9.674 7.727-6.219 11.986-.987.793-1.876 2.08-2.567 2.972-2.172 2.674-3.554 5.646-4.541 9.014-1.086 4.061 1.382 7.825 5.134 9.113 4.343 1.486 8.588.198 12.043-2.576 1.876-1.584 3.159-4.259 4.936-6.042.691.396 1.382.99 2.172 1.486.79 2.18 2.271 3.962 4.442 5.052-.098.495-.098.99-.098 1.486.987 18.82-7.108 36.65-7.108 55.372 0 16.245 8.983 35.165 27.641 34.867 8.786-.198 16.881-5.25 23.495-10.599 6.22-4.952 12.636-10.698 17.572-17.037 5.43-6.934 3.061-16.939 3.357-25.16.395-10.203 1.876-20.307 4.146-30.212.691-2.873-.494-5.547-2.468-7.231 3.751-5.547 8.687-10.104 11.945-15.948 3.653-5.944-3.652-14.165-9.971-10.005zm-39.586 75.084l.592-2.674c.198.099.395.099.593.198-.494.792-.889 1.684-1.185 2.476zm-12.537 24.863v.099c.099.397.197.694.296 1.09-.494-.099-.889-.297-1.382-.495.395-.198.79-.496 1.086-.694zm22.014-8.618c.198-.495.395-.99.494-1.485.296.099.592.099.888.099l-.493.495-.889.891z"/><path fill="#fff" d="M225.094 169.827c2.567 7.627 2.863 15.354.395 22.981-2.172 6.934-10.267 13.571-6.417 21.198 1.185 2.278 3.949 3.764 6.417 3.665 11.155-.396 18.263-7.825 20.731-18.226-2.369 1.783-4.739 3.665-7.108 5.448h.494c-1.777-.693-3.455-1.486-5.232-2.179.098.099.197.297.296.396-.592-2.377-1.284-4.854-1.876-7.231 0 .198 0 .297-.099.495-.592 3.962.988 7.925 5.134 9.113 3.455.991 8.588-1.188 9.082-5.151.79-5.646-1.974-9.806-7.898-10.301-3.06-.298-6.416 2.476-7.107 5.448-.889 3.764-1.777 7.132-6.417 7.33 2.172 1.188 4.245 2.476 6.417 3.665-.099-.198-.198-.297-.296-.495.296 1.882.493 3.863.789 5.745.691-3.071 3.949-6.538 5.232-9.51a46.932 46.932 0 0 0 3.554-11.49c1.382-8.321.889-16.74-1.875-24.764-2.962-9.014-17.276-5.151-14.216 3.863z"/><path fill="#C9E5FF" d="M241.481 180.326c.198-.396.297-.891.297-1.386 1.974-26.052 9.18-51.707 8.588-77.858 2.172 2.08 5.528 3.071 8.391 1.486 2.369-1.288 3.653-3.864 3.752-6.538.098-2.476-1.383-4.755-1.185-7.033.197-2.278-2.172-4.358-4.344-4.358-.691 0-1.283.198-1.875.396-.79-.595-1.777-.99-2.765-1.288-3.85-1.09-8.687.396-10.464 4.26-.493.99-.592 2.08-.395 3.17-.197.494-.197 1.089-.197 1.683 2.665 29.024-5.923 57.254-8.095 85.981v.396c-.395.792-.494 1.783-.197 2.872l3.257 11.59c1.481 5.349 9.872 3.071 8.293-2.278-.988-3.566-2.073-7.33-3.061-11.095zM234.472 61.46a19.3 19.3 0 0 1 1.086 1.486c.296.594.592 1.287.889 2.08.296.891.395 1.882.493 3.07.099.991 0 2.18 0 3.467-.493.694-.888 1.486-1.283 2.279-2.567 5.052 4.146 8.717 7.404 4.358 2.369-3.17 5.627-5.448 9.181-7.132h.098l.593.594c1.875 1.387 2.369 3.071.888 4.656-3.85 3.962 2.172 10.104 6.121 6.142 4.64-4.656 4.541-12.68-.889-16.84-.691-.495-1.382-.891-2.171-1.09-.593-1.485-1.876-2.575-3.752-2.377-.395 0-.79.1-1.184.198-1.086.198-2.172.397-3.258.793l-1.185.297a7.401 7.401 0 0 0-1.777.792c-.395.198-.888.396-1.283.595.296-1.387.395-2.873.099-4.359-.297-1.98-1.284-3.863-2.468-5.349-1.284-1.486-2.863-2.674-4.541-3.368-1.679-.693-3.456-.99-5.233-.99-3.455.099-6.712 1.882-8.095 4.853 1.58.397 2.863.793 4.048 1.19 1.086.395 2.073.99 2.863 1.485.79.495 1.481.99 2.073 1.486.493.693.888 1.188 1.283 1.684zM218.48 63.54c0-.793-.198-1.585-.79-2.477a21.536 21.536 0 0 0-2.369-2.872c-5.035-7.826-12.143-14.165-22.409-12.382-2.468.495-3.357 2.377-3.061 4.26-3.652 2.277-6.416 5.447-8.391 9.211-4.343-3.17-9.477-4.754-14.906-4.358-1.58.099-2.765.99-3.456 2.08-4.541 0-9.575 2.08-8.391 7.627.593 2.972 3.949 3.566 6.318 2.576 5.331-2.377 11.649-.198 15.302 4.061.987 1.189 2.27 1.486 3.455 1.288 1.974 2.18 6.515 1.882 7.404-1.684 1.481-5.25 4.541-9.609 10.069-10.896 3.85-.892 7.799.297 10.761 2.773.691.99 1.382 1.981 1.974 2.972.592 1.09 1.086 2.18 1.58 3.07 1.085 2.08 3.948 2.675 5.923 1.586 2.171-1.288 2.468-3.764 1.579-5.944-.197-.099-.395-.495-.592-.891zM264.483 265.118c-2.567-4.359-4.245-9.113-5.331-14.066-1.283-5.745-1.678-11.59-1.481-17.434 1.185-.594 2.172-1.882 2.172-3.665v-2.773c.099-1.288.198-2.675.593-4.062a4.296 4.296 0 0 0-.593-3.368v-6.438c0-5.547-8.588-5.547-8.588 0v3.962c-.691.792-1.086 1.783-1.185 2.873-1.185 10.698-1.481 21.495.691 32.094.987 5.051 2.666 10.004 5.035 14.561 2.369 4.655 6.12 8.717 7.601 13.868 1.58 5.349 9.872 3.07 8.293-2.279-1.58-4.853-4.542-8.816-7.207-13.273zM137.925 207.864c-1.382 1.387-2.665 2.774-4.047 4.16-.494.297-.889.595-1.383.892-.789.594-.394 1.783.297 2.278 1.678 1.09 5.232 3.071 7.206 1.486.987-.892.987-2.278.987-3.566 0-1.585-.296-3.17-.691-4.656-.197-.99-1.579-1.387-2.369-.594zm.197 6.538c-.098.099-1.085-.397-1.48-.496.296-.099.592-.198.987-.198.296 0 .493-.198.592-.297 0 .495 0 .991-.099.991zM306.932 183.992a46.47 46.47 0 0 0-10.464 1.188c-1.58.298-1.185 2.477.099 2.774-.099.792.296 1.684 1.382 1.585 3.455-.099 6.713-1.09 9.674-2.873 1.185-.693.691-2.674-.691-2.674z"/><path fill="#C9E5FF" d="M249.774 71.96c5.528 0 5.528-8.618 0-8.618-5.627 0-5.627 8.618 0 8.618z"/><path fill="#1F84FF" d="M174.649 96.624c2.566 21.396-7.503 42.198-4.344 63.693 1.283 8.915 5.232 17.434 12.34 23.179 6.022 4.854 14.018 7.628 21.718 5.646 4.837-1.188 8.984-4.061 12.834-7.132 5.034-4.061 9.773-8.518 14.61-12.877 1.382-1.189-.691-3.269-2.073-2.08-3.751 3.368-7.601 6.736-11.353 10.104-3.455 3.07-7.108 6.141-11.451 8.023-7.898 3.368-16.486 1.09-22.903-4.358-14.808-12.58-12.142-34.175-9.181-51.212 1.876-10.896 3.949-21.99 2.666-33.085-.198-1.684-3.061-1.684-2.863.1zM248.688 90.682c2.073 18.028.197 35.957-3.258 53.688-2.369 11.986-6.713 24.169-4.146 36.353 1.382 6.241 3.554 12.283 6.121 18.028.789 1.684 3.257.199 2.468-1.485-2.172-4.854-3.949-9.906-5.232-15.057-1.975-7.726-1.284-14.957.394-22.684 2.863-13.174 5.627-26.249 6.911-39.622a144.58 144.58 0 0 0-.296-29.221c-.297-1.883-3.159-1.883-2.962 0z"/><path fill="#1F84FF" d="M222.725 174.978c5.034 10.599 2.27 23.08-6.812 30.509-1.481 1.188.593 3.17 2.073 2.08 10.168-8.222 12.735-22.288 7.207-33.976-.79-1.684-3.258-.297-2.468 1.387z"/><path fill="#1F84FF" d="M216.407 204.893l-.198-.199c.099.595.198 1.189.198 1.783.099-.099.099-.198.197-.297-.493.198-1.086.397-1.579.694.493.099 1.382 1.783 1.678 2.08a16.838 16.838 0 0 0 1.876 1.882c1.382 1.189 2.961 2.278 4.639 3.071 3.357 1.585 7.108 1.882 10.563.693 8.194-2.774 13.031-11.59 17.77-18.226 1.086-1.486-1.382-2.972-2.468-1.486-4.442 6.042-8.984 14.66-16.585 17.038-3.751 1.188-7.404.099-10.563-2.081-1.481-.99-2.764-2.278-3.949-3.665-.789-.99-1.184-1.783-2.369-2.179-.592-.198-1.283.099-1.579.693-.099.1-.099.199-.198.298-.395.495-.197 1.287.198 1.783l.197.198c1.481 1.287 3.554-.694 2.172-2.08z"/><path fill="#1F84FF" d="M214.63 204.199c-10.069 6.241-18.658 14.363-25.371 24.17-.79 1.189-1.579 2.377-2.27 3.566-.692 1.089-1.383 3.071-2.271 3.962-2.271 2.179-7.404-3.17-9.378-4.656l-18.066-13.372c-1.481-1.09-2.962 1.387-1.481 2.476 6.318 4.656 12.636 9.411 18.954 14.066 2.37 1.783 5.627 5.349 8.688 5.448 2.468.099 3.554-2.179 4.541-4.061 6.713-11.887 16.486-21.891 28.036-29.122 1.579-.892.197-3.467-1.382-2.477zM196.466 124.657c-4.838 1.882-11.057 5.845-11.551 11.59-.296 3.17 1.777 6.141 4.936 6.636 3.456.496 7.404-.891 10.761-1.584 1.777-.397 1.086-3.17-.79-2.774-2.073.396-4.146.892-6.219 1.288-1.876.297-4.048.99-5.331-1.09-.889-1.387-.395-2.972.296-4.358 1.777-3.368 5.232-5.547 8.687-6.934 1.679-.694.987-3.467-.789-2.774zM189.753 163.785c11.056 1.486 20.533-7.727 24.976-17.038.789-1.684-1.679-3.17-2.468-1.486-4.048 8.42-12.439 16.939-22.508 15.552-1.777-.099-1.777 2.774 0 2.972z"/><path fill="#1F84FF" d="M218.381 220.543c-9.872 6.439-17.868 15.255-25.074 24.467-3.357 4.259-6.417 9.807-11.057 12.877-5.923 3.863-10.267-1.981-13.13-6.636-4.837-8.123-7.502-17.632-14.018-24.665-2.369-2.477-5.528-5.349-9.082-5.845-3.159-.495-5.133 1.882-6.417 4.557-1.184 2.575-1.974 5.448-2.665 8.222-.296 1.188-.494 2.773-1.283 3.764-1.481 1.882-1.679.198-1.777-1.288-.198-2.576.197-5.25.592-7.726.197-.991.296-1.882.592-2.873.099-.495.79-1.882.099-.991-.79-.297-1.678-.693-2.468-.99.099-.793-.099.099-.296.297-.296.297-.494 1.09-.691 1.486a62.803 62.803 0 0 0-1.382 3.962c-.395 1.486-.593 3.071-.889 4.656-.098.99-.098 1.684-.79 2.476-1.184 1.387-2.073 1.387-2.369-.594-.296-2.576.593-5.349 1.284-7.727.296-1.188.691-2.278 1.085-3.367.099-.298.691-1.585.395-1.387-.789-.297-1.678-.694-2.468-.991 0-.495-.197.495-.296.694-.395.693-.691 1.584-1.086 2.278-.888 1.783-1.974 3.467-3.159 5.151-.789 1.089-2.863 4.16-4.343 4.655-1.284.397-1.481-.099-1.58-1.287-.099-.793.099-1.486.296-2.279.889-3.07 3.357-5.646 5.627-7.924.79-.793 3.258-2.476 3.061-3.764-.099-.892-.593-1.387-1.481-1.486-1.382-.198-3.554 2.08-4.64 2.674-1.777.991-3.85 1.783-5.923 1.783-2.271 0-2.567-1.485-1.185-3.169 2.073-2.477 7.207-2.972 10.07-4.161a34.443 34.443 0 0 0 8.786-5.25c1.085-.99 2.961-2.575 2.566-4.259-.493-1.882-2.961-1.585-4.343-1.486-1.086 0-2.666.297-3.653-.198-1.876-.891-.79-2.972.888-3.467 3.258-.99 8.095 1.387 10.958 2.675 7.7 3.566 13.624 9.509 18.066 16.74.987 1.585 3.455.099 2.468-1.486-4.442-7.231-10.464-13.471-18.164-17.335-4.048-1.981-17.375-7.528-18.066 1.288-.197 2.675 1.974 4.26 4.442 4.557 1.185.198 3.061.297 4.245 0h.889c-.099-.297-.296-.694-.395-.991 0 .099-.099.099-.099.198-.296 0-1.579 1.684-1.876 1.882-3.948 3.269-8.687 4.953-13.524 6.538-3.06.991-6.022 2.476-6.614 5.943-.691 4.062 2.764 5.151 6.12 4.755 2.073-.297 4.147-1.09 6.022-2.08a22.944 22.944 0 0 0 2.567-1.684c.197-.099.592-.297.691-.495.395-.397.79 0-.099-.198l-1.481-1.486c-.098-.892.198-.496-.493.099-.691.495-1.284 1.287-1.876 1.882-1.481 1.486-2.961 3.17-4.146 4.953-1.876 2.773-3.653 7.231-1.382 10.301 4.541 6.142 15.203-10.301 15.203-14.66 0-1.189-1.58-1.882-2.468-.99-1.679 1.783-2.271 5.844-2.764 8.023-.691 2.873-2.074 8.222.691 10.401 3.257 2.575 6.712-1.387 7.206-4.458.395-2.773.79-5.448 1.876-8.122.395-1.09 1.283-2.377 1.382-3.566.099-1.189-1.678-1.981-2.468-.991-.691.793-.79 1.981-.987 2.972-.494 2.08-.79 4.259-.988 6.439-.296 2.674-.888 8.617 2.666 9.311 4.936.99 5.824-6.835 6.713-9.906.592-2.08 1.579-6.934 4.146-7.528 1.777-.495 4.245 1.486 5.528 2.476 8.293 6.439 10.958 17.434 16.091 26.151 2.37 3.962 5.43 9.014 10.366 9.906 5.232.99 9.576-3.071 12.636-6.835 9.378-11.689 17.868-23.774 30.603-32.094 1.481-1.288.099-3.764-1.481-2.774zM256.487 221.93c-.395 18.424 3.258 37.245 11.254 53.985.79 1.684 3.257.199 2.468-1.485-7.7-16.245-11.254-34.571-10.859-52.5 0-1.882-2.863-1.882-2.863 0z"/><path fill="#1F84FF" d="M216.506 223.02a455.053 455.053 0 0 1-2.074 23.08c-.493 3.962-.987 7.924-1.579 11.986-.494 3.467-.889 6.934-2.863 9.806-1.086 1.486 1.481 2.972 2.468 1.486 1.777-2.675 2.468-5.646 2.962-8.816.592-4.061 1.184-8.123 1.678-12.184a537.255 537.255 0 0 0 2.369-25.358c.099-1.783-2.863-1.783-2.961 0zM192.319 89.493c-2.27 4.457-7.107 7.528-12.241 6.537-5.627-1.09-8.786-6.439-8.588-11.886.098-1.883-2.765-1.883-2.863 0-.198 6.735 3.85 13.174 10.661 14.66 6.318 1.287 12.538-2.279 15.499-7.826.889-1.684-1.579-3.17-2.468-1.485z"/><path fill="#1F84FF" d="M168.726 84.54c.789 4.656-1.185 9.807-5.924 11.59-3.652 1.386-8.193.297-10.859-2.576-2.961-3.269-2.27-7.924 0-11.391 2.666-3.962 6.911-6.24 11.748-5.448 1.777.297 2.567-2.477.79-2.774-6.121-.891-11.551 1.585-14.907 6.835-2.962 4.556-3.455 10.698.494 14.858 3.652 3.864 9.872 5.151 14.709 2.873 5.627-2.576 7.799-8.816 6.811-14.66-.394-1.882-3.159-1.09-2.862.693z"/><path fill="#1F84FF" d="M157.175 77.606c1.876 0 1.876-2.873 0-2.873-1.875-.099-1.875 2.873 0 2.873z"/><path fill="#1F84FF" d="M158.163 75.229c-4.542-6.934-1.382-15.057 6.318-17.434 7.7-2.279 14.906 2.08 17.275 9.707.593 1.783 3.357.99 2.765-.792-2.863-9.212-11.847-14.561-21.225-11.59-9.28 2.972-13.13 13.175-7.7 21.495 1.086 1.684 3.554.199 2.567-1.386z"/><path fill="#1F84FF" d="M183.04 63.54c.395-8.32 6.713-15.552 15.203-15.948 10.859-.495 18.855 8.915 18.164 19.415-.099 1.882 2.764 1.882 2.863 0 .79-12.085-8.688-22.882-21.027-22.288-10.07.396-17.671 8.915-18.165 18.82.099 1.883 2.962 1.883 2.962 0z"/><path fill="#1F84FF" d="M219.27 65.323c-.494-9.311 8.687-15.75 17.078-10.896 7.207 4.26 7.404 14.165.296 18.425-1.579.99-.099 3.466 1.481 2.476 8.983-5.448 8.786-18.127-.296-23.476-10.168-5.944-22.015 1.783-21.323 13.372 0 1.981 2.862 1.981 2.764.1z"/><path fill="#1F84FF" d="M243.95 68.394c3.652-3.368 10.562-5.151 14.709-1.585 2.961 2.476 3.554 7.132 1.48 10.4-1.875 2.972-5.429 4.557-8.786 4.855-1.776.198-1.875 2.773 0 2.872 4.443.297 9.478 2.476 10.465 7.231 1.283 6.24-4.541 9.708-9.675 6.142-1.579-1.09-2.961 1.486-1.481 2.476 6.22 4.259 14.216.792 14.117-7.033-.098-7.33-6.91-11.391-13.524-11.688v2.872c4.343-.396 8.588-2.18 11.056-5.943 2.567-3.764 2.37-8.816-.296-12.58-4.837-6.637-14.906-4.854-20.237 0-1.185 1.188.888 3.269 2.172 1.98zM214.235 112.474c-.296-.297-2.073-2.08-1.283-2.477.987-.594.789 2.18.592 2.477-.395.891-1.086-.297-.79-.892a.775.775 0 0 1 .395-.396c.099 0 .494 0 .494-.099-.099-.594.098-.792.592-.495.494.297.592.198.494-.198.394-.496-1.086-1.288-.494-1.684-1.58.99-.099 3.467 1.481 2.476 1.579-.991 1.283-3.566-.593-3.962-2.171-.496-3.356 1.684-3.159 3.566.198 1.981 2.271 3.368 3.949 1.783 1.481-1.486.494-3.665-1.283-4.26-1.876-.495-3.752.694-4.443 2.378a3.9 3.9 0 0 0 1.876 4.655c4.146 2.081 6.121-4.754 3.653-7.231-1.481-1.486-4.048-1.486-5.134.496-1.184 2.179.297 4.358 1.777 5.844 1.086 1.387 3.159-.694 1.876-1.981zM189.753 112.474c-.198-.199-.296-.397-.296-.595v.793c-.099.297-.099 0 .098.099.198 0 .296 0 .494.099.296.099.493.495.691.693.296.396.494.594.197.892-.296.297-.888.396-1.283.297.296 0 .099.198 0-.099 0-.198-.099-.297-.099-.496-.098-.891.691-1.584 1.382-2.08a7.208 7.208 0 0 0-1.382.397c.593.099 1.185.297 1.679.693.296.198.197.099.197.198-.197.495-.987 0-1.283 0-.099 0-.099-.099-.099-.099 0 .792.099.991.395.594.296-.099.691-.495.987-.594 1.579-.892.197-3.368-1.481-2.476-1.382.792-3.356 2.179-2.468 3.962.691 1.387 2.764 1.882 4.245 1.585 1.382-.297 2.666-1.585 2.567-3.071-.099-1.684-1.58-2.774-2.962-3.269-.987-.396-1.777-.594-2.566.099-.691.595-1.284 1.189-1.679 1.981-.691 1.486-.592 3.368.593 4.656 1.283 1.387 3.554.891 4.837 0 1.283-.892 1.678-2.476.987-3.962-.691-1.486-2.172-2.972-3.85-2.972-.888 0-1.876.297-2.567.892-.888.891-.592 2.179 0 3.169 1.185 1.585 3.653.198 2.666-1.386zM255.528 215.585c1.185 7.925 3.85 15.849 8.984 22.09 4.738 5.646 17.078 13.669 24.186 7.825 4.146-3.368 4.64-9.906 4.936-14.858.395-6.34-.099-12.779.691-19.118.296-2.278.691-4.458 1.481-6.637.789-2.278 2.172-6.042 4.442-7.132 2.271-1.089 4.541 1.486 6.022 3.071 2.27 2.278 4.047 5.547 6.713 7.33 1.579 1.09 4.245 1.783 5.726.099 1.382-1.585.493-4.061-.198-5.745-1.086-2.576-2.567-4.854-4.146-7.132-.79-1.09-1.876-3.269-3.159-3.863-1.283-.595-2.666.693-1.974 1.981.493.891 1.678 1.486 2.369 2.179 2.073 1.882 3.652 4.061 5.133 6.439 1.086 1.684 2.271 3.169 4.344 3.467 1.579.198 3.554-.298 4.343-1.783 1.679-3.071-1.776-7.331-3.553-9.609-1.481-1.882-3.752-5.448-6.121-6.339-1.283-.496-2.073 1.089-1.58 2.08 1.876 4.061 20.04 14.561 19.942 5.745 0-3.764-3.258-6.538-6.318-8.222-1.679-.99-3.455-1.684-5.232-2.377-.691-.297-1.382-.495-2.172-.792-1.185-.397-.987-.793-.691.297-.198.495-.272.517-.569 1.013-.888.396.273.869.964.968.691.099 1.48.198 2.171.297 2.172.198 4.344.099 6.417-.495 2.567-.694 5.627-2.378 4.739-5.547-.691-2.576-3.357-4.062-5.923-4.26-4.64-.297-9.181 1.09-13.821.694-1.975-.199-4.146-.496-6.022-1.189-.197-.099-.888-.495-1.086-.495.099 0-.395.891.099.792.592 0 1.481-.693 1.974-.891 2.073-.892 4.739-2.081 5.035-4.755.296-2.377-1.58-4.458-3.751-5.052-2.567-.693-5.233 1.09-7.207 2.575-6.219 4.656-9.576 11.095-13.13 17.831-3.652 7.032-7.305 13.867-8.884 21.792-1.382 6.835-1.185 13.769-2.37 20.603 0 .199-.394 1.09-.296 1.288.198.396-.098.099.691 0 .494-.099.395.396.296 0-.296-1.189-1.184-2.575-1.678-3.764-3.258-8.321-5.725-16.939-9.378-25.16-1.283-2.774-2.863-5.646-5.627-7.132-3.949-2.08-8.49-1.09-12.34.594-1.678.694-.197 3.269 1.481 2.477 3.652-1.585 8.292-2.378 11.353.792 2.369 2.476 3.455 6.241 4.639 9.41 2.468 6.736 4.739 13.472 7.404 20.109.593 1.585 1.382 4.655 3.159 5.349 3.159 1.287 3.455-4.161 3.554-5.944.691-7.132.987-14.363 2.863-21.297 1.974-7.429 5.923-14.264 9.576-21 3.06-5.844 6.91-12.381 13.129-15.353 1.284-.594 2.962-.991 3.85.594.691 1.288-1.184 2.278-2.171 2.774-1.382.693-4.344 1.188-4.739 3.07-.592 2.279 2.863 3.269 4.442 3.666 4.542 1.188 9.379 1.188 14.117.594 1.876-.198 3.949-.793 5.825-.396.79.198 1.579.594 2.073 1.287 1.283 1.783-.79 2.378-2.172 2.774-2.567.693-5.133.495-7.7.099-.889-.099-1.777-.495-2.665 0-.593.297-.79 1.09-.692 1.585.395 1.387 2.765 1.783 3.949 2.179 2.863.991 5.825 2.179 8.095 4.16.889.793 2.271 2.18 2.271 3.467-.099 2.675-5.035-.198-6.22-.792-2.27-1.189-6.515-4.194-8.812-5.604-.494.693-.566 1.047-1.059 1.741-.691-.297.592.792.987 1.089.789.892 1.678 1.684 2.369 2.675 1.185 1.387 4.541 4.656 4.442 6.637-.194 4.292-5.368-2.356-6.721-3.836a42.453 42.453 0 0 0-3-3c-.296-.297-1.802-1.777-1.703-1.579-.691.693-.916.787-1.607 1.481-.296-.099.593.693.691.99.494.595.889 1.288 1.383 1.882 1.382 1.981 2.665 3.963 3.751 6.142.493.99 1.876 3.368 0 3.368-.987 0-2.073-1.585-2.666-2.279-2.171-2.476-4.047-5.15-6.614-7.231-7.108-5.943-11.945 2.576-13.722 9.014-2.665 9.807-.592 20.109-2.369 30.014-.494 2.774-1.185 6.241-3.751 7.826-2.37 1.386-5.43.792-7.799 0-3.949-1.288-7.7-3.467-10.563-6.439-5.824-5.943-8.589-14.363-9.773-22.387-.79-1.386-3.554-.594-3.357 1.189z"/><path fill="#C9E5FF" d="M318.087 117.129c4.838-2.773 9.872-5.151 15.203-7.033 2.962-1.089 1.678-5.844-1.283-4.754-5.726 1.981-11.155 4.457-16.388 7.528-2.764 1.486-.296 5.844 2.468 4.259zM305.254 74.931c-3.949 3.27-7.897 6.637-11.846 9.906-2.468 2.08 1.086 5.547 3.455 3.467 3.949-3.269 7.897-6.637 11.846-9.906 2.468-1.98-1.086-5.448-3.455-3.467zM112.357 67.899c2.961 2.278 5.923 4.655 8.884 6.933 2.073 1.585 6.911 4.16 7.009 7.133.099 3.17 5.035 3.17 4.936 0-.098-3.864-2.665-6.142-5.429-8.321-3.949-3.07-7.898-6.142-11.846-9.311-2.567-1.883-6.022 1.585-3.554 3.566zM88.467 149.719c6.318.693 12.735 1.287 19.053 1.981 3.159.297 3.159-4.656 0-4.953-6.318-.693-12.735-1.288-19.053-1.981-3.16-.297-3.16 4.655 0 4.953zM76.62 218.86c-7.206 2.377-14.511 4.853-21.718 7.231-2.961.99-1.678 5.745 1.284 4.754 7.206-2.377 14.511-4.853 21.718-7.231 3.06-.99 1.777-5.745-1.283-4.754zM118.971 277.005c-4.344 3.963-8.786 7.925-13.13 11.887-2.369 2.179 1.086 5.646 3.456 3.467 4.343-3.962 8.786-7.924 13.129-11.887 2.369-2.179-1.086-5.646-3.455-3.467zM332.698 264.425c6.812 3.467 13.623 7.033 20.435 10.5 2.863 1.486 5.331-2.773 2.468-4.259-6.812-3.467-13.623-7.033-20.435-10.5-2.863-1.486-5.331 2.773-2.468 4.259zM356.292 190.232c7.7-.891 15.301-1.882 23.001-2.773 3.159-.396 3.159-5.349 0-4.953-7.7.891-15.301 1.882-23.001 2.774-3.06.396-3.06 5.349 0 4.952zM364.189 227.675c2.172.199 4.344.397 6.614.694 1.284.099 2.468-1.189 2.468-2.477 0-1.485-1.184-2.377-2.468-2.476-2.171-.198-4.343-.396-6.614-.693-1.283-.099-2.468 1.188-2.468 2.476 0 1.486 1.185 2.377 2.468 2.476z"/><path fill="#1F84FF" d="M300.121 90.979c1.579-1.783 3.06-3.566 4.639-5.25.889-.99.988-2.477 0-3.467-.888-.892-2.566-.99-3.455 0-1.579 1.783-3.06 3.566-4.64 5.25-.888.99-.987 2.476 0 3.467.889.891 2.567.99 3.456 0zM354.317 195.186c4.542-.892 9.083-1.882 13.624-2.774 4.047-.792 8.687-2.575 12.734-2.674l-2.369-1.783c0-.397.099-.793.099-1.189 1.086-.297 2.27-.594 3.356-.891-.098 0-.098-.1-.197-.1-2.665-1.783-5.133 2.477-2.468 4.26.099 0 .099.099.197.099 1.185.792 2.666.099 3.357-.892.592-.792.691-1.684.395-2.674-.395-.991-1.185-1.882-2.37-1.783-3.948.099-8.292 1.684-12.241 2.476-5.133 1.09-10.266 2.08-15.4 3.17-3.159.594-1.777 5.349 1.283 4.755zM362.906 228.864c3.258.594 6.516 1.288 9.675 1.882 3.06.594 4.442-3.962 1.283-4.755-3.357-.891-6.91-1.386-10.366-1.287-3.159.099-3.159 5.052 0 4.953 3.061-.1 6.121.297 9.083 1.089.394-1.585.888-3.17 1.283-4.755-3.258-.594-6.516-1.287-9.675-1.882-3.06-.594-4.442 4.161-1.283 4.755zM333.981 265.713c5.331 2.278 10.662 3.962 16.388 4.953 3.06.495 4.442-4.26 1.283-4.755-5.232-.891-10.365-2.377-15.203-4.457-2.863-1.288-5.331 2.971-2.468 4.259zM117.293 76.22c2.863 3.664 5.923 7.131 9.082 10.5 2.271 2.377 5.331-1.09 3.455-3.468a79.803 79.803 0 0 0-7.7-8.618c-.197 1.288-.296 2.576-.494 3.864-.592-.199-1.184-.298-1.776-.496 1.48 2.774 5.725.297 4.244-2.476-.987-1.783-3.257-2.477-5.034-1.288-1.284.892-1.678 2.675-.494 3.863a79.811 79.811 0 0 1 7.7 8.618l3.455-3.467c-3.257-3.269-6.318-6.835-9.082-10.5-1.875-2.575-5.331.99-3.356 3.467zM96.266 150.115c3.652-.694 7.305-1.486 11.056-2.18-.592-1.485-1.283-2.971-1.876-4.556-.789.396-1.579.693-2.468 1.089-2.862 1.288-.394 5.548 2.468 4.26.79-.396 1.58-.694 2.468-1.09 2.666-1.188.691-5.052-1.875-4.556-3.653.693-7.305 1.486-11.057 2.179-3.06.693-1.777 5.448 1.284 4.854zM67.44 224.308c4.047-1.684 8.193-3.467 12.24-5.151 2.962-1.189.396-5.547-2.467-4.259-4.048 1.684-8.194 3.467-12.241 5.151-2.962 1.188-.494 5.448 2.468 4.259zM110.975 290.081l-2.666 2.674c-.888.892-.987 2.576 0 3.467.987.892 2.567.991 3.455 0l2.666-2.674c.888-.892.987-2.576 0-3.467-.889-.892-2.468-.991-3.455 0zM322.727 118.021a27.359 27.359 0 0 0 7.7-2.675c2.567-1.287.79-5.25-1.875-4.556a15.792 15.792 0 0 0-6.614 3.764c-1.679 1.585 0 5.151 2.369 4.16.592-.198 1.184-.495 1.678-.693 1.185-.495 2.073-1.684 1.678-3.071-.296-1.189-1.777-2.278-3.06-1.684-.592.198-1.185.495-1.678.694l2.369 4.16c1.283-1.189 2.764-1.981 4.442-2.477-.592-1.485-1.283-2.971-1.875-4.556a25.026 25.026 0 0 1-6.516 2.08c-1.283.297-2.073 1.882-1.678 3.071.395 1.387 1.777 1.981 3.06 1.783z"/></svg>